<svg width="33" height="32" viewBox="0 0 33 32" fill="none" xmlns="http://www.w3.org/2000/svg">
<path d="M12.2 18.2H21.8M12.2 12.2H17" stroke="#1D1D1F" stroke-width="1.5" stroke-linecap="round" stroke-linejoin="round"/>
<path d="M9.91857 24.8C8.35844 24.6465 7.1897 24.1779 6.40588 23.3941C5 21.9883 5 19.7254 5 15.2V14.6C5 10.0745 5 7.81178 6.40588 6.40588C7.81178 5 10.0745 5 14.6 5H19.4C23.9254 5 26.1883 5 27.5941 6.40588C29 7.81178 29 10.0745 29 14.6V15.2C29 19.7254 29 21.9883 27.5941 23.3941C26.1883 24.8 23.9254 24.8 19.4 24.8C18.7274 24.815 18.1917 24.8661 17.6655 24.986C16.2274 25.3171 14.8958 26.0529 13.5798 26.6947C11.7047 27.609 10.7672 28.0662 10.1788 27.6381C9.05323 26.7998 10.1534 24.2023 10.4 23" stroke="#1D1D1F" stroke-width="1.5" stroke-linecap="round" stroke-linejoin="round"/>
</svg>
