<svg width="32" height="32" viewBox="0 0 32 32" fill="none" xmlns="http://www.w3.org/2000/svg">
<path d="M22.1667 6V8M10.1667 6V8" stroke="#1D1D1F" stroke-width="1.5" stroke-linecap="round" stroke-linejoin="round"/>
<path d="M7.16675 12H25.1667" stroke="#1D1D1F" stroke-width="1.5" stroke-linecap="round" stroke-linejoin="round"/>
<path d="M6.66675 16.2432C6.66675 11.8859 6.66675 9.70728 7.91887 8.35364C9.17099 7 11.1862 7 15.2167 7H17.1167C21.1472 7 23.1625 7 24.4146 8.35364C25.6667 9.70728 25.6667 11.8859 25.6667 16.2432V16.7568C25.6667 21.1141 25.6667 23.2927 24.4146 24.6464C23.1625 26 21.1472 26 17.1167 26H15.2167C11.1862 26 9.17099 26 7.91887 24.6464C6.66675 23.2927 6.66675 21.1141 6.66675 16.7568V16.2432Z" stroke="#1D1D1F" stroke-width="1.5" stroke-linecap="round" stroke-linejoin="round"/>
<path d="M16.7715 16.0055L17.3874 17.2475C17.4714 17.4204 17.6953 17.5862 17.8842 17.618L19.0007 17.805C19.7146 17.925 19.8825 18.4472 19.3681 18.9624L18.5002 19.8374C18.3532 19.9856 18.2727 20.2715 18.3182 20.4761L18.5667 21.5594C18.7627 22.4168 18.3113 22.7485 17.5589 22.3004L16.5125 21.6758C16.3235 21.5629 16.012 21.5629 15.8195 21.6758L14.7731 22.3004C14.0242 22.7485 13.5693 22.4133 13.7653 21.5594L14.0137 20.4761C14.0592 20.2715 13.9787 19.9856 13.8317 19.8374L12.9638 18.9624C12.4529 18.4472 12.6174 17.925 13.3313 17.805L14.4476 17.618C14.6331 17.5862 14.8571 17.4204 14.9411 17.2475L15.557 16.0055C15.893 15.3315 16.439 15.3315 16.7715 16.0055Z" stroke="#1D1D1F" stroke-width="1.5" stroke-linecap="round" stroke-linejoin="round"/>
</svg>
