<svg width="24" height="24" viewBox="0 0 24 24" fill="none" xmlns="http://www.w3.org/2000/svg">
<rect x="1" y="1" width="22" height="22" rx="11" fill="#E83535"/>
<rect x="1" y="1" width="22" height="22" rx="11" stroke="white" stroke-width="2"/>
<path d="M16.4776 7.59649C14.8685 6.60954 13.4642 7.00727 12.6206 7.64081C12.2747 7.90058 12.1018 8.03046 12 8.03046C11.8982 8.03046 11.7253 7.90058 11.3794 7.64081C10.5358 7.00727 9.13145 6.60954 7.52246 7.59649C5.41084 8.89176 4.93303 13.1649 9.80372 16.77C10.7314 17.4567 11.1953 17.8 12 17.8C12.8047 17.8 13.2686 17.4567 14.1963 16.77C19.067 13.1649 18.5891 8.89176 16.4776 7.59649Z" fill="white" stroke="#A32525" stroke-width="1.5" stroke-linecap="round" stroke-linejoin="round"/>
</svg>
