<svg width="33" height="32" viewBox="0 0 33 32" fill="none" xmlns="http://www.w3.org/2000/svg">
<path d="M28.6667 16.7999C28.6667 15.4744 27.5922 14.3999 26.2667 14.3999C24.2785 14.3999 22.6667 16.0116 22.6667 17.9999V22.7999C22.6667 24.7882 24.2785 26.3999 26.2667 26.3999C27.5922 26.3999 28.6667 25.3254 28.6667 23.9999V16.7999Z" stroke="#1D1D1F" stroke-width="1.5" stroke-linecap="round" stroke-linejoin="round"/>
<path d="M12.4923 11.1675L12.8119 12.1996C13.0737 13.0453 13.2046 13.4682 13.104 13.8022C13.0225 14.0723 12.8437 14.3052 12.6 14.4584C12.2988 14.6478 11.8431 14.6478 10.9318 14.6478H10.447C7.36291 14.6478 5.82091 14.6478 5.09251 15.5608C5.00935 15.665 4.93531 15.776 4.87123 15.8924C4.31095 16.9105 4.94791 18.2821 6.22195 21.0253C7.39111 23.5427 7.97575 24.8014 9.06115 25.5422C9.16615 25.6139 9.27415 25.6816 9.38479 25.7449C10.5276 26.4 11.9433 26.4 14.7751 26.4H15.3892C18.8199 26.4 20.5352 26.4 21.601 25.3674C22.6667 24.3347 22.6667 22.6727 22.6667 19.3487V18.1804C22.6667 16.4335 22.6667 15.5602 22.3567 14.7607C22.0467 13.9613 21.4531 13.304 20.2659 11.9893L15.3562 6.55267C15.2331 6.41633 15.1716 6.34814 15.1172 6.3009C14.6106 5.85994 13.8285 5.90957 13.3855 6.41082C13.338 6.46452 13.2861 6.53989 13.1824 6.69065C13.0202 6.92646 12.9391 7.04437 12.8683 7.16118C12.2354 8.20696 12.0439 9.44923 12.3338 10.6286C12.3662 10.7603 12.4082 10.8961 12.4923 11.1675Z" stroke="#1D1D1F" stroke-width="1.5" stroke-linecap="round" stroke-linejoin="round"/>
</svg>
