<svg width="33" height="32" viewBox="0 0 33 32" fill="none" xmlns="http://www.w3.org/2000/svg">
<path d="M11.5964 12.8422C12.4684 12.8422 13.1754 12.1353 13.1754 11.2633C13.1754 10.3912 12.4684 9.68433 11.5964 9.68433C10.7244 9.68433 10.0175 10.3912 10.0175 11.2633C10.0175 12.1353 10.7244 12.8422 11.5964 12.8422Z" stroke="#1D1D1F" stroke-width="1.5" stroke-linecap="round" stroke-linejoin="round"/>
<path d="M6.33325 16C6.33325 11.286 6.33325 8.92894 7.79772 7.46446C9.26219 6 11.6192 6 16.3333 6C21.0473 6 23.4043 6 24.8688 7.46446C26.3333 8.92894 26.3333 11.286 26.3333 16C26.3333 20.714 26.3333 23.0711 24.8688 24.5356C23.4043 26 21.0473 26 16.3333 26C11.6192 26 9.26219 26 7.79772 24.5356C6.33325 23.0711 6.33325 20.714 6.33325 16Z" stroke="#1D1D1F" stroke-width="1.5" stroke-linecap="round" stroke-linejoin="round"/>
<path d="M8.96484 25.4736C13.5674 19.9736 18.7271 12.72 26.3306 17.6235" stroke="#1D1D1F" stroke-width="1.5" stroke-linecap="round" stroke-linejoin="round"/>
</svg>
