<svg width="32" height="32" viewBox="0 0 32 32" fill="none" xmlns="http://www.w3.org/2000/svg">
<path d="M11 21L11 17" stroke="#1D1D1F" stroke-width="1.5" stroke-linecap="round" stroke-linejoin="round"/>
<path d="M16 21L16 11" stroke="#1D1D1F" stroke-width="1.5" stroke-linecap="round" stroke-linejoin="round"/>
<path d="M21 21L21 15" stroke="#1D1D1F" stroke-width="1.5" stroke-linecap="round" stroke-linejoin="round"/>
<path d="M6 16C6 11.286 6 8.92894 7.46446 7.46446C8.92894 6 11.286 6 16 6C20.714 6 23.0711 6 24.5356 7.46446C26 8.92894 26 11.286 26 16C26 20.714 26 23.0711 24.5356 24.5356C23.0711 26 20.714 26 16 26C11.286 26 8.92894 26 7.46446 24.5356C6 23.0711 6 20.714 6 16Z" stroke="#1D1D1F" stroke-width="1.5" stroke-linecap="round" stroke-linejoin="round"/>
</svg>
