<svg width="16" height="16" viewBox="0 0 16 16" fill="none" xmlns="http://www.w3.org/2000/svg">
<path d="M14 8C14 4.68629 11.3137 2 8 2C4.68629 2 2 4.68629 2 8C2 11.3137 4.68629 14 8 14C11.3137 14 14 11.3137 14 8Z" stroke="#6E6E73" stroke-width="1.5"/>
<path d="M12.8 4.21939C12.2392 4.25982 11.5209 4.47694 11.0228 5.12166C10.1231 6.28617 9.22345 6.38334 8.62369 5.99517C7.72399 5.41292 8.48005 4.46982 7.42411 3.95729C6.73593 3.62325 6.63997 2.71427 7.02301 2" stroke="#6E6E73" stroke-linejoin="round"/>
<path d="M11.5 4.5H12.5L11.5 3L10 2.5L9 2H7V2.5V3.5L7.5 4.5L8 5.5L9 6L10 5.5L11.5 4.5Z" fill="#6E6E73"/>
<path d="M10 12L9.5 13.5L12 12.5L13 11L14 8.5L13.5 9H11.5L10 9.5L9.5 10.5L10 12Z" fill="#6E6E73"/>
<path d="M6 11.5V13.5H5L3.5 12.5L2.5 10.5L2 8H2.5H4L5.5 8.5V9.5L6 11.5Z" fill="#6E6E73"/>
<path d="M2 7.3999C2.4575 7.79716 3.09828 8.16082 3.85324 8.16082C5.41306 8.16082 5.72502 8.45884 5.72502 9.65098C5.72502 10.8431 5.72502 10.8431 6.03699 11.7372C6.23991 12.3188 6.31083 12.9003 5.90636 13.3999" stroke="#6E6E73" stroke-linejoin="round"/>
<path d="M14 8.87147C13.4677 8.56475 12.8 8.43857 12.124 8.92439C10.8306 9.85397 9.93879 9.08369 9.53709 9.85343C8.94585 10.9866 11.0574 11.3427 9.19995 14.0001" stroke="#6E6E73" stroke-linejoin="round"/>
</svg>
