<svg width="24" height="24" viewBox="0 0 24 24" fill="none" xmlns="http://www.w3.org/2000/svg">
<rect x="1" y="1" width="22" height="22" rx="11" fill="#50B83C"/>
<rect x="1" y="1" width="22" height="22" rx="11" stroke="white" stroke-width="2"/>
<path d="M18 12.4C18 11.7372 17.4627 11.2 16.8 11.2C15.8059 11.2 15 12.0058 15 13V15.3999C15 16.3941 15.8059 17.1999 16.8 17.1999C17.4627 17.1999 18 16.6627 18 15.9999V12.4Z" fill="white" stroke="#10853B" stroke-width="1.5" stroke-linecap="round" stroke-linejoin="round"/>
<path d="M9.91278 9.58376L10.0726 10.0998C10.2035 10.5227 10.2689 10.7341 10.2186 10.9011C10.1779 11.0361 10.0885 11.1526 9.9666 11.2292C9.816 11.3239 9.58818 11.3239 9.13254 11.3239H8.89014C7.34808 11.3239 6.57708 11.3239 6.21288 11.7804C6.1713 11.8325 6.13428 11.888 6.10224 11.9462C5.8221 12.4553 6.14058 13.1411 6.7776 14.5127C7.36218 15.7713 7.6545 16.4007 8.1972 16.7711C8.2497 16.8069 8.3037 16.8408 8.35902 16.8725C8.9304 17.2 9.63828 17.2 11.0542 17.2H11.3612C13.0766 17.2 13.9342 17.2 14.4671 16.6837C15 16.1673 15 15.3363 15 13.6743V13.0902C15 12.2168 15 11.7801 14.845 11.3804C14.69 10.9806 14.3932 10.652 13.7996 9.99467L11.3447 7.27634C11.2832 7.20816 11.2524 7.17407 11.2252 7.15045C10.9719 6.92997 10.5809 6.95478 10.3594 7.20541C10.3356 7.23226 10.3097 7.26995 10.2578 7.34532C10.1767 7.46323 10.1362 7.52219 10.1008 7.58059C9.78432 8.10348 9.68856 8.72462 9.83352 9.31429C9.84972 9.38015 9.87072 9.44806 9.91278 9.58376Z" fill="white" stroke="#10853B" stroke-width="1.5" stroke-linecap="round" stroke-linejoin="round"/>
</svg>
