<svg width="33" height="32" viewBox="0 0 33 32" fill="none" xmlns="http://www.w3.org/2000/svg">
<path d="M25.9223 12.5475L23.3018 10.2719C21.4139 8.6323 20.6738 7.75028 19.6514 8.06209C18.3766 8.45089 18.7963 10.9041 18.7963 11.7324C16.8142 11.7324 14.7535 11.5799 12.7997 11.8975C6.35005 12.9461 4.33325 17.5349 4.33325 22.4788C6.15871 21.3598 7.98236 20.1119 10.1764 19.5934C12.9151 18.946 15.9737 19.2548 18.7963 19.2548C18.7963 20.0831 18.3766 22.5364 19.6514 22.9252C20.8099 23.2784 21.4139 22.3549 23.3018 20.7154L25.9223 18.4397C27.5296 17.044 28.3333 16.346 28.3333 15.4936C28.3333 14.6413 27.5296 13.9433 25.9223 12.5475Z" stroke="#1D1D1F" stroke-width="1.5" stroke-linecap="round" stroke-linejoin="round"/>
</svg>
