<svg width="24" height="24" viewBox="0 0 24 24" fill="none" xmlns="http://www.w3.org/2000/svg">
<rect x="1" y="1" width="22" height="22" rx="11" fill="#EEC200"/>
<rect x="1" y="1" width="22" height="22" rx="11" stroke="white" stroke-width="2"/>
<path d="M13.0366 6.86651L14.0924 8.99572C14.2364 9.29212 14.6204 9.57642 14.9444 9.63085L16.8581 9.95145C18.082 10.1571 18.37 11.0524 17.4881 11.9355L16.0003 13.4356C15.7483 13.6897 15.6103 14.1796 15.6883 14.5305L16.1143 16.3875C16.4502 17.8574 15.6763 18.426 14.3864 17.6578L12.5926 16.5871C12.2687 16.3936 11.7347 16.3936 11.4047 16.5871L9.61096 17.6578C8.3271 18.426 7.54719 17.8513 7.88315 16.3875L8.3091 14.5305C8.38709 14.1796 8.24911 13.6897 7.99713 13.4356L6.5093 11.9355C5.6334 11.0524 5.91537 10.1571 7.13923 9.95145L9.05302 9.63085C9.37098 9.57642 9.75494 9.29212 9.89892 8.99572L10.9548 6.86651C11.5307 5.71116 12.4666 5.71116 13.0366 6.86651Z" fill="white" stroke="#B89600" stroke-width="1.5" stroke-linecap="round" stroke-linejoin="round"/>
</svg>
